<svg width="144" height="46" viewBox="0 0 144 46" fill="none" xmlns="http://www.w3.org/2000/svg">
<g filter="url(#filter0_d_98_664)">
<path d="M9.984 32C9.19467 32 8.46933 31.808 7.808 31.424C7.168 31.04 6.656 30.5173 6.272 29.856C5.888 29.1947 5.696 28.4693 5.696 27.68V26.144H9.536V27.552C9.536 27.7227 9.58933 27.8613 9.696 27.968C9.80267 28.0747 9.94133 28.128 10.112 28.128H24.256C24.4267 28.128 24.5653 28.0747 24.672 27.968C24.8 27.8613 24.864 27.7227 24.864 27.552V22.976C24.864 22.8267 24.8 22.6987 24.672 22.592C24.5653 22.464 24.4267 22.4 24.256 22.4H9.984C9.19467 22.4 8.46933 22.208 7.808 21.824C7.168 21.44 6.656 20.928 6.272 20.288C5.888 19.6267 5.696 18.9013 5.696 18.112V13.28C5.696 12.4907 5.888 11.7653 6.272 11.104C6.656 10.4427 7.168 9.92 7.808 9.536C8.46933 9.152 9.19467 8.96 9.984 8.96H24.416C25.2053 8.96 25.92 9.152 26.56 9.536C27.2213 9.92 27.744 10.4427 28.128 11.104C28.5333 11.7653 28.736 12.4907 28.736 13.28V14.816H24.864V13.408C24.864 13.2373 24.8 13.0987 24.672 12.992C24.5653 12.8853 24.4267 12.832 24.256 12.832H10.112C9.94133 12.832 9.80267 12.8853 9.696 12.992C9.58933 13.0987 9.536 13.2373 9.536 13.408V17.984C9.536 18.1333 9.58933 18.272 9.696 18.4C9.80267 18.5067 9.94133 18.56 10.112 18.56H24.416C25.2053 18.56 25.92 18.752 26.56 19.136C27.2213 19.52 27.744 20.0427 28.128 20.704C28.5333 21.344 28.736 22.0587 28.736 22.848V27.68C28.736 28.4693 28.5333 29.1947 28.128 29.856C27.744 30.5173 27.2213 31.04 26.56 31.424C25.92 31.808 25.2053 32 24.416 32H9.984ZM32.1983 32V8.96H36.5823L45.2223 19.264L53.8303 8.96H58.2463V32H54.3743V14.336L45.2223 25.248L36.0383 14.368V32H32.1983ZM109.104 32L102.032 23.552H107.056L113.424 31.104V32H109.104ZM90.4795 32V8.992H109.2C109.989 8.992 110.704 9.19467 111.344 9.6C112.005 9.984 112.528 10.5067 112.912 11.168C113.317 11.808 113.52 12.5227 113.52 13.312V19.648C113.52 20.416 113.317 21.1307 112.912 21.792C112.528 22.4533 112.005 22.976 111.344 23.36C110.704 23.744 109.989 23.936 109.2 23.936L94.3195 23.968V32H90.4795ZM94.8955 20.064H109.072C109.221 20.064 109.349 20.0107 109.456 19.904C109.584 19.7973 109.648 19.6587 109.648 19.488V13.408C109.648 13.2587 109.584 13.1307 109.456 13.024C109.349 12.896 109.221 12.832 109.072 12.832H94.8955C94.7462 12.832 94.6075 12.896 94.4795 13.024C94.3728 13.1307 94.3195 13.2587 94.3195 13.408V19.488C94.3195 19.6587 94.3728 19.7973 94.4795 19.904C94.6075 20.0107 94.7462 20.064 94.8955 20.064ZM125.334 32V12.832H115.734V8.96H138.774V12.832H129.174V32H125.334Z" fill="#FDBB59"/>
</g>
<path d="M52.14 44V37H54.99C55.7367 37 56.39 37.15 56.95 37.45C57.5167 37.7433 57.9567 38.1533 58.27 38.68C58.5833 39.2067 58.74 39.8133 58.74 40.5C58.74 41.1867 58.5833 41.7933 58.27 42.32C57.9567 42.8467 57.5167 43.26 56.95 43.56C56.39 43.8533 55.7367 44 54.99 44H52.14ZM52.88 43.36H54.95C55.57 43.36 56.1067 43.24 56.56 43C57.02 42.7533 57.3767 42.4167 57.63 41.99C57.8833 41.5567 58.01 41.06 58.01 40.5C58.01 39.9333 57.8833 39.4367 57.63 39.01C57.3767 38.5833 57.02 38.25 56.56 38.01C56.1067 37.7633 55.57 37.64 54.95 37.64H52.88V43.36ZM68.8617 40.13H72.5617V40.76H68.8617V40.13ZM68.9417 43.36H73.1517V44H68.2017V37H73.0017V37.64H68.9417V43.36ZM84.5835 44L81.4835 37H82.2835L85.1835 43.59H84.7435L87.6635 37H88.4135L85.3135 44H84.5835ZM99.1595 44.06C98.6395 44.06 98.1395 43.9767 97.6595 43.81C97.1861 43.6367 96.8195 43.4167 96.5595 43.15L96.8495 42.58C97.0961 42.82 97.4261 43.0233 97.8395 43.19C98.2595 43.35 98.6995 43.43 99.1595 43.43C99.5995 43.43 99.9561 43.3767 100.229 43.27C100.509 43.1567 100.713 43.0067 100.839 42.82C100.973 42.6333 101.039 42.4267 101.039 42.2C101.039 41.9267 100.959 41.7067 100.799 41.54C100.646 41.3733 100.443 41.2433 100.189 41.15C99.9361 41.05 99.6561 40.9633 99.3495 40.89C99.0428 40.8167 98.7361 40.74 98.4295 40.66C98.1228 40.5733 97.8395 40.46 97.5795 40.32C97.3261 40.18 97.1195 39.9967 96.9595 39.77C96.8061 39.5367 96.7295 39.2333 96.7295 38.86C96.7295 38.5133 96.8195 38.1967 96.9995 37.91C97.1861 37.6167 97.4695 37.3833 97.8495 37.21C98.2295 37.03 98.7161 36.94 99.3095 36.94C99.7028 36.94 100.093 36.9967 100.479 37.11C100.866 37.2167 101.199 37.3667 101.479 37.56L101.229 38.15C100.929 37.95 100.609 37.8033 100.269 37.71C99.9361 37.6167 99.6128 37.57 99.2995 37.57C98.8795 37.57 98.5328 37.6267 98.2595 37.74C97.9861 37.8533 97.7828 38.0067 97.6495 38.2C97.5228 38.3867 97.4595 38.6 97.4595 38.84C97.4595 39.1133 97.5361 39.3333 97.6895 39.5C97.8495 39.6667 98.0561 39.7967 98.3095 39.89C98.5695 39.9833 98.8528 40.0667 99.1595 40.14C99.4661 40.2133 99.7695 40.2933 100.069 40.38C100.376 40.4667 100.656 40.58 100.909 40.72C101.169 40.8533 101.376 41.0333 101.529 41.26C101.689 41.4867 101.769 41.7833 101.769 42.15C101.769 42.49 101.676 42.8067 101.489 43.1C101.303 43.3867 101.016 43.62 100.629 43.8C100.249 43.9733 99.7595 44.06 99.1595 44.06Z" fill="white"/>
<path d="M87.6991 31.5652H82.3917L76.8049 15.3636L79.319 8.3801L87.6991 31.5652Z" fill="white"/>
<path d="M68.9835 31.5652H62L72.3355 0H78.7603L68.9835 31.5652Z" fill="white"/>
<defs>
<filter id="filter0_d_98_664" x="0.696045" y="3.95999" width="143.078" height="33.04" filterUnits="userSpaceOnUse" color-interpolation-filters="sRGB">
<feFlood flood-opacity="0" result="BackgroundImageFix"/>
<feColorMatrix in="SourceAlpha" type="matrix" values="0 0 0 0 0 0 0 0 0 0 0 0 0 0 0 0 0 0 127 0" result="hardAlpha"/>
<feOffset/>
<feGaussianBlur stdDeviation="2.5"/>
<feComposite in2="hardAlpha" operator="out"/>
<feColorMatrix type="matrix" values="0 0 0 0 0.992157 0 0 0 0 0.733333 0 0 0 0 0.34902 0 0 0 1 0"/>
<feBlend mode="normal" in2="BackgroundImageFix" result="effect1_dropShadow_98_664"/>
<feBlend mode="normal" in="SourceGraphic" in2="effect1_dropShadow_98_664" result="shape"/>
</filter>
</defs>
</svg>
